<svg width="1471" height="1471" viewBox="0 0 1471 1471" fill="none" xmlns="http://www.w3.org/2000/svg">
<path d="M1470.78 735.391L774.174 1121.5C750.048 1134.88 720.734 1134.88 696.608 1121.5L0.000146866 735.391L735.391 -0.000476837L1470.78 735.391Z" fill="#1F1340"/>
<path d="M1470.78 735.391L774.174 1121.5C750.048 1134.88 720.734 1134.88 696.608 1121.5L0.000146866 735.391L735.391 -0.000476837L1470.78 735.391Z" fill="#1F1340"/>
<mask id="mask0_1344_28" style="mask-type:alpha" maskUnits="userSpaceOnUse" x="0" y="0" width="1471" height="1132">
<path d="M1470.78 735.391L774.174 1121.5C750.048 1134.88 720.734 1134.88 696.608 1121.5L0.000146866 735.391L735.391 -0.000476837L1470.78 735.391Z" fill="#1F1340"/>
<path d="M1470.78 735.391L774.174 1121.5C750.048 1134.88 720.734 1134.88 696.608 1121.5L0.000146866 735.391L735.391 -0.000476837L1470.78 735.391Z" fill="#1F1340"/>
</mask>
<g mask="url(#mask0_1344_28)">
<g filter="url(#filter0_f_1344_28)">
<circle cx="735" cy="1067" r="280" fill="#DB40FF"/>
</g>
</g>
<defs>
<filter id="filter0_f_1344_28" x="-45" y="287" width="1560" height="1560" filterUnits="userSpaceOnUse" color-interpolation-filters="sRGB">
<feFlood flood-opacity="0" result="BackgroundImageFix"/>
<feBlend mode="normal" in="SourceGraphic" in2="BackgroundImageFix" result="shape"/>
<feGaussianBlur stdDeviation="250" result="effect1_foregroundBlur_1344_28"/>
</filter>
</defs>
</svg>
